<svg width="36" height="36" viewBox="0 0 36 36" fill="none" xmlns="http://www.w3.org/2000/svg">
<path d="M8.99902 10.4999H16.499C16.8968 10.4999 17.2784 10.6579 17.5597 10.9392C17.841 11.2205 17.999 11.6021 17.999 11.9999C17.999 12.3977 17.841 12.7792 17.5597 13.0605C17.2784 13.3418 16.8968 13.4999 16.499 13.4999H8.99902C8.6012 13.4999 8.21967 13.3418 7.93836 13.0605C7.65706 12.7792 7.49902 12.3977 7.49902 11.9999C7.49902 11.6021 7.65706 11.2205 7.93836 10.9392C8.21967 10.6579 8.6012 10.4999 8.99902 10.4999ZM19.499 22.4999H26.999C27.3968 22.4999 27.7784 22.6579 28.0597 22.9392C28.341 23.2205 28.499 23.6021 28.499 23.9999C28.499 24.3977 28.341 24.7792 28.0597 25.0605C27.7784 25.3418 27.3968 25.4999 26.999 25.4999H19.499C19.1012 25.4999 18.7197 25.3418 18.4384 25.0605C18.1571 24.7792 17.999 24.3977 17.999 23.9999C17.999 23.6021 18.1571 23.2205 18.4384 22.9392C18.7197 22.6579 19.1012 22.4999 19.499 22.4999ZM8.99902 16.4999H26.999C27.3968 16.4999 27.7784 16.6579 28.0597 16.9392C28.341 17.2205 28.499 17.6021 28.499 17.9999C28.499 18.3977 28.341 18.7792 28.0597 19.0605C27.7784 19.3418 27.3968 19.4999 26.999 19.4999H8.99902C8.6012 19.4999 8.21967 19.3418 7.93836 19.0605C7.65706 18.7792 7.49902 18.3977 7.49902 17.9999C7.49902 17.6021 7.65706 17.2205 7.93836 16.9392C8.21967 16.6579 8.6012 16.4999 8.99902 16.4999Z" fill="white"/>
</svg>
